<svg xmlns="http://www.w3.org/2000/svg" xmlns:xlink="http://www.w3.org/1999/xlink" xmlns:lucid="lucid" width="895.71" height="1315.36"><g transform="translate(471.5253793024972 470.86319022835033)" lucid:page-tab-id="0_0"><path d="M-450.52-441.86a8 8 0 0 1 8-8h836.74a8 8 0 0 1 8 8v25.15a8 8 0 0 1-8 8h-836.75a8 8 0 0 1-8-8z" stroke="#000" stroke-opacity="0" stroke-width="2" fill="#fff" fill-opacity="0"/><use xlink:href="#a" transform="matrix(1,0,0,1,-446.5253793024972,-445.86319022835033) translate(327.58592592592595 25.782777777777778)"/><use xlink:href="#b" transform="matrix(1,0,0,1,-446.5253793024972,-445.86319022835033) translate(430.87234567901237 25.782777777777778)"/><path d="M-275.04-410.05h505.86M-275-410.05h-1.04M230.8-410.05h1.02" stroke="#a9afb8" stroke-width="2" fill="none"/><path d="M-450.52-400.7a8 8 0 0 1 8-8h837.7a8 8 0 0 1 8 8v2.84a8 8 0 0 1-8 8h-837.7a8 8 0 0 1-8-8z" stroke="#000" stroke-opacity="0" stroke-width="2" fill="#fff" fill-opacity="0"/><use xlink:href="#c" transform="matrix(1,0,0,1,-446.52537930249673,-404.70796627145154) translate(296.971316872428 14.917037037037037)"/><use xlink:href="#d" transform="matrix(1,0,0,1,-446.52537930249673,-404.70796627145154) translate(342.0104115226338 14.917037037037037)"/><use xlink:href="#e" transform="matrix(1,0,0,1,-446.52537930249673,-404.70796627145154) translate(404.7677160493827 14.917037037037037)"/><use xlink:href="#f" transform="matrix(1,0,0,1,-446.52537930249673,-404.70796627145154) translate(417.21720164609053 14.917037037037037)"/><use xlink:href="#g" transform="matrix(1,0,0,1,-446.52537930249673,-404.70796627145154) translate(496.1630864197531 14.917037037037037)"/><use xlink:href="#h" transform="matrix(1,0,0,1,-446.52537930249673,-404.70796627145154) translate(521.656913580247 14.917037037037037)"/><path d="M-400-303.1a5 5 0 0 1 5-5h270a5 5 0 0 1 5 5v94a5 5 0 0 1-5 5h-270a5 5 0 0 1-5-5z" fill="#fff"/><path d="M-400-268.1v-35a5 5 0 0 1 5-5h270a5 5 0 0 1 5 5v35" fill="#ced4db"/><path d="M-400-303.1a5 5 0 0 1 5-5h270a5 5 0 0 1 5 5v94a5 5 0 0 1-5 5h-270a5 5 0 0 1-5-5zM-400-268.1h280M-260-268.1v64" stroke="#282c33" fill="none"/><use xlink:href="#i" transform="matrix(1,0,0,1,-390,-308.11427693925987) translate(0 23.6)"/><use xlink:href="#j" transform="matrix(1,0,0,1,-395,-265.61427693925987) translate(0 17.1)"/><use xlink:href="#k" transform="matrix(1,0,0,1,-255,-265.61427693925987) translate(0 17.1)"/><use xlink:href="#l" transform="matrix(1,0,0,1,-395,-233.61427693925987) translate(0 17.1)"/><use xlink:href="#m" transform="matrix(1,0,0,1,-255,-233.61427693925987) translate(0 17.1)"/><path d="M80 629a5 5 0 0 1 5-5h270a5 5 0 0 1 5 5v190a5 5 0 0 1-5 5H85a5 5 0 0 1-5-5z" fill="#fff"/><path d="M80 664v-35a5 5 0 0 1 5-5h270a5 5 0 0 1 5 5v35" fill="#ced4db"/><path d="M80 629a5 5 0 0 1 5-5h270a5 5 0 0 1 5 5v190a5 5 0 0 1-5 5H85a5 5 0 0 1-5-5zM80 664h280M220 664v160" stroke="#282c33" fill="none"/><use xlink:href="#n" transform="matrix(1,0,0,1,90,624) translate(0 23.6)"/><use xlink:href="#j" transform="matrix(1,0,0,1,85,666.5) translate(0 17.1)"/><use xlink:href="#k" transform="matrix(1,0,0,1,225,666.5) translate(0 17.1)"/><use xlink:href="#o" transform="matrix(1,0,0,1,85,698.5) translate(0 17.1)"/><use xlink:href="#p" transform="matrix(1,0,0,1,225,698.5) translate(0 17.1)"/><use xlink:href="#q" transform="matrix(1,0,0,1,85,730.5) translate(0 17.1)"/><use xlink:href="#p" transform="matrix(1,0,0,1,225,730.5) translate(0 17.1)"/><use xlink:href="#n" transform="matrix(1,0,0,1,85,762.5) translate(0 17.1)"/><use xlink:href="#r" transform="matrix(1,0,0,1,225,762.5) translate(0 17.1)"/><use xlink:href="#s" transform="matrix(1,0,0,1,85,794.5) translate(0 17.1)"/><use xlink:href="#t" transform="matrix(1,0,0,1,225,794.5) translate(0 17.1)"/><path d="M80 233a5 5 0 0 1 5-5h270a5 5 0 0 1 5 5v318a5 5 0 0 1-5 5H85a5 5 0 0 1-5-5z" fill="#fff"/><path d="M80 268v-35a5 5 0 0 1 5-5h270a5 5 0 0 1 5 5v35" fill="#ced4db"/><path d="M80 233a5 5 0 0 1 5-5h270a5 5 0 0 1 5 5v318a5 5 0 0 1-5 5H85a5 5 0 0 1-5-5zM80 268h280M218.28 268v288" stroke="#282c33" fill="none"/><use xlink:href="#u" transform="matrix(1,0,0,1,90,228.0000000000001) translate(0 23.6)"/><use xlink:href="#j" transform="matrix(1,0,0,1,85,270.5000000000001) translate(0 17.1)"/><use xlink:href="#k" transform="matrix(1,0,0,1,223.27983457586146,270.5000000000001) translate(0 17.1)"/><use xlink:href="#q" transform="matrix(1,0,0,1,85,302.5000000000001) translate(0 17.1)"/><use xlink:href="#p" transform="matrix(1,0,0,1,223.27983457586146,302.5000000000001) translate(0 17.1)"/><use xlink:href="#v" transform="matrix(1,0,0,1,85,334.5000000000001) translate(0 17.1)"/><use xlink:href="#p" transform="matrix(1,0,0,1,223.27983457586146,334.5000000000001) translate(0 17.1)"/><use xlink:href="#w" transform="matrix(1,0,0,1,85,366.5000000000001) translate(0 17.1)"/><use xlink:href="#p" transform="matrix(1,0,0,1,223.27983457586146,366.5000000000001) translate(0 17.1)"/><use xlink:href="#x" transform="matrix(1,0,0,1,85,398.5000000000001) translate(0 17.1)"/><use xlink:href="#t" transform="matrix(1,0,0,1,223.27983457586146,398.5000000000001) translate(0 17.1)"/><use xlink:href="#y" transform="matrix(1,0,0,1,85,430.5000000000001) translate(0 17.1)"/><use xlink:href="#z" transform="matrix(1,0,0,1,223.27983457586146,430.5000000000001) translate(0 17.1)"/><use xlink:href="#A" transform="matrix(1,0,0,1,85,462.5000000000001) translate(0 17.1)"/><use xlink:href="#t" transform="matrix(1,0,0,1,223.27983457586146,462.5000000000001) translate(0 17.1)"/><use xlink:href="#B" transform="matrix(1,0,0,1,85,494.5000000000001) translate(0 17.1)"/><use xlink:href="#m" transform="matrix(1,0,0,1,223.27983457586146,494.5000000000001) translate(0 17.1)"/><use xlink:href="#C" transform="matrix(1,0,0,1,85,526.5000000000001) translate(0 17.1)"/><use xlink:href="#m" transform="matrix(1,0,0,1,223.27983457586146,526.5000000000001) translate(0 17.1)"/><path d="M80-35a5 5 0 0 1 5-5h270a5 5 0 0 1 5 5v190a5 5 0 0 1-5 5H85a5 5 0 0 1-5-5z" fill="#fff"/><path d="M80 0v-35a5 5 0 0 1 5-5h270a5 5 0 0 1 5 5V0" fill="#ced4db"/><path d="M80-35a5 5 0 0 1 5-5h270a5 5 0 0 1 5 5v190a5 5 0 0 1-5 5H85a5 5 0 0 1-5-5zM80 0h280M218.28 0v160" stroke="#282c33" fill="none"/><use xlink:href="#D" transform="matrix(1,0,0,1,90,-39.99999999999994) translate(0 23.6)"/><use xlink:href="#j" transform="matrix(1,0,0,1,85,2.500000000000057) translate(0 17.1)"/><use xlink:href="#k" transform="matrix(1,0,0,1,223.27983457586146,2.500000000000057) translate(0 17.1)"/><use xlink:href="#o" transform="matrix(1,0,0,1,85,34.50000000000006) translate(0 17.1)"/><use xlink:href="#p" transform="matrix(1,0,0,1,223.27983457586146,34.50000000000006) translate(0 17.1)"/><use xlink:href="#v" transform="matrix(1,0,0,1,85,66.50000000000006) translate(0 17.1)"/><use xlink:href="#p" transform="matrix(1,0,0,1,223.27983457586146,66.50000000000006) translate(0 17.1)"/><use xlink:href="#q" transform="matrix(1,0,0,1,85,98.50000000000006) translate(0 17.1)"/><use xlink:href="#p" transform="matrix(1,0,0,1,223.27983457586146,98.50000000000006) translate(0 17.1)"/><use xlink:href="#E" transform="matrix(1,0,0,1,85,130.50000000000006) translate(0 17.1)"/><use xlink:href="#t" transform="matrix(1,0,0,1,223.27983457586146,130.50000000000006) translate(0 17.1)"/><path d="M-400 325a5 5 0 0 1 5-5h270a5 5 0 0 1 5 5v126a5 5 0 0 1-5 5h-270a5 5 0 0 1-5-5z" fill="#fff"/><path d="M-400 360v-35a5 5 0 0 1 5-5h270a5 5 0 0 1 5 5v35" fill="#cfe4ff"/><path d="M-400 325a5 5 0 0 1 5-5h270a5 5 0 0 1 5 5v126a5 5 0 0 1-5 5h-270a5 5 0 0 1-5-5zM-400 360h280M-261.72 360v96" stroke="#282c33" fill="none"/><use xlink:href="#F" transform="matrix(1,0,0,1,-390,320) translate(0 23.6)"/><use xlink:href="#G" transform="matrix(1,0,0,1,-395,362.5) translate(0 17.1)"/><use xlink:href="#m" transform="matrix(1,0,0,1,-256.72016542413854,362.5) translate(0 17.1)"/><use xlink:href="#H" transform="matrix(1,0,0,1,-395,394.5) translate(0 17.1)"/><use xlink:href="#t" transform="matrix(1,0,0,1,-256.72016542413854,394.5) translate(0 17.1)"/><use xlink:href="#I" transform="matrix(1,0,0,1,-395,426.5) translate(0 17.1)"/><use xlink:href="#J" transform="matrix(1,0,0,1,-256.72016542413854,426.5) translate(0 17.1)"/><path d="M80-335a5 5 0 0 1 5-5h270a5 5 0 0 1 5 5v222a5 5 0 0 1-5 5H85a5 5 0 0 1-5-5z" fill="#fff"/><path d="M80-300v-35a5 5 0 0 1 5-5h270a5 5 0 0 1 5 5v35" fill="#ced4db"/><path d="M80-335a5 5 0 0 1 5-5h270a5 5 0 0 1 5 5v222a5 5 0 0 1-5 5H85a5 5 0 0 1-5-5zM80-300h280M218.28-300v192" stroke="#282c33" fill="none"/><use xlink:href="#K" transform="matrix(1,0,0,1,90,-340) translate(0 23.6)"/><use xlink:href="#j" transform="matrix(1,0,0,1,85,-297.5) translate(0 17.1)"/><use xlink:href="#k" transform="matrix(1,0,0,1,223.27983457586146,-297.5) translate(0 17.1)"/><use xlink:href="#v" transform="matrix(1,0,0,1,85,-265.5) translate(0 17.1)"/><use xlink:href="#p" transform="matrix(1,0,0,1,223.27983457586146,-265.5) translate(0 17.1)"/><use xlink:href="#q" transform="matrix(1,0,0,1,85,-233.5) translate(0 17.1)"/><use xlink:href="#p" transform="matrix(1,0,0,1,223.27983457586146,-233.5) translate(0 17.1)"/><use xlink:href="#L" transform="matrix(1,0,0,1,85,-201.5) translate(0 17.1)"/><use xlink:href="#t" transform="matrix(1,0,0,1,223.27983457586146,-201.5) translate(0 17.1)"/><use xlink:href="#s" transform="matrix(1,0,0,1,85,-169.5) translate(0 17.1)"/><use xlink:href="#t" transform="matrix(1,0,0,1,223.27983457586146,-169.5) translate(0 17.1)"/><use xlink:href="#M" transform="matrix(1,0,0,1,85,-137.5) translate(0 17.1)"/><use xlink:href="#J" transform="matrix(1,0,0,1,223.27983457586146,-137.5) translate(0 17.1)"/><path d="M-400 85a5 5 0 0 1 5-5h270a5 5 0 0 1 5 5v158a5 5 0 0 1-5 5h-270a5 5 0 0 1-5-5z" fill="#fff"/><path d="M-400 120V85a5 5 0 0 1 5-5h270a5 5 0 0 1 5 5v35" fill="#ced4db"/><path d="M-400 85a5 5 0 0 1 5-5h270a5 5 0 0 1 5 5v158a5 5 0 0 1-5 5h-270a5 5 0 0 1-5-5zM-400 120h280M-261.72 120v128" stroke="#282c33" fill="none"/><use xlink:href="#N" transform="matrix(1,0,0,1,-390,80.00000000000006) translate(0 23.6)"/><use xlink:href="#j" transform="matrix(1,0,0,1,-395,122.50000000000006) translate(0 17.1)"/><use xlink:href="#k" transform="matrix(1,0,0,1,-256.72016542413854,122.50000000000006) translate(0 17.1)"/><use xlink:href="#O" transform="matrix(1,0,0,1,-395,154.50000000000006) translate(0 17.1)"/><use xlink:href="#m" transform="matrix(1,0,0,1,-256.72016542413854,154.50000000000006) translate(0 17.1)"/><use xlink:href="#P" transform="matrix(1,0,0,1,-395,186.50000000000006) translate(0 17.1)"/><use xlink:href="#p" transform="matrix(1,0,0,1,-256.72016542413854,186.50000000000006) translate(0 17.1)"/><use xlink:href="#Q" transform="matrix(1,0,0,1,-395,218.50000000000006) translate(0 17.1)"/><use xlink:href="#m" transform="matrix(1,0,0,1,-256.72016542413854,218.50000000000006) translate(0 17.1)"/><path d="M-400-115a5 5 0 0 1 5-5h270a5 5 0 0 1 5 5V11a5 5 0 0 1-5 5h-270a5 5 0 0 1-5-5z" fill="#fff"/><path d="M-400-80v-35a5 5 0 0 1 5-5h270a5 5 0 0 1 5 5v35" fill="#ced4db"/><path d="M-400-115a5 5 0 0 1 5-5h270a5 5 0 0 1 5 5V11a5 5 0 0 1-5 5h-270a5 5 0 0 1-5-5zM-400-80h280M-260-80v96" stroke="#282c33" fill="none"/><use xlink:href="#R" transform="matrix(1,0,0,1,-390,-119.99999999999994) translate(0 23.6)"/><use xlink:href="#j" transform="matrix(1,0,0,1,-395,-77.49999999999994) translate(0 17.1)"/><use xlink:href="#k" transform="matrix(1,0,0,1,-255,-77.49999999999994) translate(0 17.1)"/><use xlink:href="#S" transform="matrix(1,0,0,1,-395,-45.49999999999994) translate(0 17.1)"/><use xlink:href="#T" transform="matrix(1,0,0,1,-255,-45.49999999999994) translate(0 17.1)"/><use xlink:href="#U" transform="matrix(1,0,0,1,-395,-13.499999999999943) translate(0 17.1)"/><use xlink:href="#T" transform="matrix(1,0,0,1,-255,-13.499999999999943) translate(0 17.1)"/><path d="M-99.5-252.1H60.1" stroke="#3a414a" fill="none"/><path d="M-99.5-242.1v-20M-119.5-252.1h20" stroke="#3a414a" fill="#fff"/><path d="M79.28-242.1l-20-10 20-10" stroke="#3a414a" fill="#fff" fill-opacity="0"/><path d="M79.28-252.1h-20" stroke="#3a414a" fill="#fff"/><path d="M-99.5-252.1H-26a6 6 0 0 1 6 6V74.07a6 6 0 0 0 6 6h74.1" stroke="#3a414a" fill="none"/><path d="M-99.5-242.1v-20M-119.5-252.1h20" stroke="#3a414a" fill="#fff"/><path d="M79.28 90.07l-20-10 20-10" stroke="#3a414a" fill="#fff" fill-opacity="0"/><path d="M79.28 80.07h-20" stroke="#3a414a" fill="#fff"/><path d="M-99.5-252.1H-26a6 6 0 0 1 6 6v587.94a6 6 0 0 0 6 6h74.1" stroke="#3a414a" fill="none"/><path d="M-99.5-242.1v-20M-119.5-252.1h20" stroke="#3a414a" fill="#fff"/><path d="M79.28 357.84l-20-10 20-10" stroke="#3a414a" fill="#fff" fill-opacity="0"/><path d="M79.28 347.84h-20" stroke="#3a414a" fill="#fff"/><path d="M-99.5-64.04H-86a6 6 0 0 1 6 6v100a6 6 0 0 0 6 6H60.1" stroke="#3a414a" fill="none"/><path d="M-99.5-54.04v-20M-119.5-64.04h20" stroke="#3a414a" fill="#fff"/><path d="M79.28 57.96l-20-10 20-10" stroke="#3a414a" fill="#fff" fill-opacity="0"/><path d="M79.28 47.96h-20" stroke="#3a414a" fill="#fff"/><path d="M-99.5-64.04H-86a6 6 0 0 1 6 6v764a6 6 0 0 0 6 6H60.1" stroke="#3a414a" fill="none"/><path d="M-99.5-54.04v-20M-119.5-64.04h20" stroke="#3a414a" fill="#fff"/><path d="M79.28 721.96l-20-10 20-10" stroke="#3a414a" fill="#fff" fill-opacity="0"/><path d="M79.28 711.96h-20" stroke="#3a414a" fill="#fff"/><path d="M-99.5 135.9H14a6 6 0 0 0 6-6V-214a6 6 0 0 1 6-6h34.1" stroke="#3a414a" fill="none"/><path d="M-99.5 145.9v-20M-119.5 135.9h20" stroke="#3a414a" fill="#fff"/><path d="M79.28-210l-20-10 20-10" stroke="#3a414a" fill="#fff" fill-opacity="0"/><path d="M79.28-220h-20" stroke="#3a414a" fill="#fff"/><path d="M-99.5 135.9H14a6 6 0 0 1 6 6v167.83a6 6 0 0 0 6 6h34.1" stroke="#3a414a" fill="none"/><path d="M-99.5 145.9v-20M-119.5 135.9h20" stroke="#3a414a" fill="#fff"/><path d="M79.28 325.73l-20-10 20-10" stroke="#3a414a" fill="#fff" fill-opacity="0"/><path d="M79.28 315.73h-20" stroke="#3a414a" fill="#fff"/><path d="M-99.5 135.9H14a6 6 0 0 0 6-6v-11.7a6 6 0 0 1 6-6h34.1" stroke="#3a414a" fill="none"/><path d="M-99.5 145.9v-20M-119.5 135.9h20" stroke="#3a414a" fill="#fff"/><path d="M79.28 122.2l-20-10 20-10" stroke="#3a414a" fill="#fff" fill-opacity="0"/><path d="M79.28 112.2h-20" stroke="#3a414a" fill="#fff"/><defs><path fill="#a9afb8" d="M24-248c93 1 206-16 204 79-1 75-69 88-152 82V0H24v-248zm52 121c47 0 100 7 100-41 0-47-54-39-100-39v80" id="V"/><path fill="#a9afb8" d="M133-34C117-15 103 5 69 4 32 3 11-16 11-54c-1-60 55-63 116-61 1-26-3-47-28-47-18 1-26 9-28 27l-52-2c7-38 36-58 82-57s74 22 75 68l1 82c-1 14 12 18 25 15v27c-30 8-71 5-69-32zm-48 3c29 0 43-24 42-57-32 0-66-3-65 30 0 17 8 27 23 27" id="W"/><path fill="#a9afb8" d="M135-150c-39-12-60 13-60 57V0H25l-1-190h47c2 13-1 29 3 40 6-28 27-53 61-41v41" id="X"/><path fill="#a9afb8" d="M147 0L96-86 75-71V0H25v-261h50v150l67-79h53l-66 74L201 0h-54" id="Y"/><path fill="#a9afb8" d="M25-224v-37h50v37H25zM25 0v-190h50V0H25" id="Z"/><path fill="#a9afb8" d="M135-194c87-1 58 113 63 194h-50c-7-57 23-157-34-157-59 0-34 97-39 157H25l-1-190h47c2 12-1 28 3 38 12-26 28-41 61-42" id="aa"/><path fill="#a9afb8" d="M195-6C206 82 75 100 31 46c-4-6-6-13-8-21l49-6c3 16 16 24 34 25 40 0 42-37 40-79-11 22-30 35-61 35-53 0-70-43-70-97 0-56 18-96 73-97 30 0 46 14 59 34l2-30h47zm-90-29c32 0 41-27 41-63 0-35-9-62-40-62-32 0-39 29-40 63 0 36 9 62 39 62" id="ab"/><g id="a"><use transform="matrix(0.0728395061728395,0,0,0.0728395061728395,0,0)" xlink:href="#V"/><use transform="matrix(0.0728395061728395,0,0,0.0728395061728395,17.48148148148148,0)" xlink:href="#W"/><use transform="matrix(0.0728395061728395,0,0,0.0728395061728395,32.04938271604938,0)" xlink:href="#X"/><use transform="matrix(0.0728395061728395,0,0,0.0728395061728395,42.24691358024691,0)" xlink:href="#Y"/><use transform="matrix(0.0728395061728395,0,0,0.0728395061728395,56.8148148148148,0)" xlink:href="#Z"/><use transform="matrix(0.0728395061728395,0,0,0.0728395061728395,64.09876543209876,0)" xlink:href="#aa"/><use transform="matrix(0.0728395061728395,0,0,0.0728395061728395,80.05061728395061,0)" xlink:href="#ab"/></g><path fill="#a9afb8" d="M169-182c-1-43-94-46-97-3 18 66 151 10 154 114 3 95-165 93-204 36-6-8-10-19-12-30l50-8c3 46 112 56 116 5-17-69-150-10-154-114-4-87 153-88 188-35 5 8 8 18 10 28" id="ac"/><path fill="#a9afb8" d="M123 10C108 53 80 86 19 72V37c35 8 53-11 59-39L3-190h52l48 148c12-52 28-100 44-148h51" id="ad"/><path fill="#a9afb8" d="M137-138c1-29-70-34-71-4 15 46 118 7 119 86 1 83-164 76-172 9l43-7c4 19 20 25 44 25 33 8 57-30 24-41C81-84 22-81 20-136c-2-80 154-74 161-7" id="ae"/><path fill="#a9afb8" d="M115-3C79 11 28 4 28-45v-112H4v-33h27l15-45h31v45h36v33H77v99c-1 23 16 31 38 25v30" id="af"/><path fill="#a9afb8" d="M185-48c-13 30-37 53-82 52C43 2 14-33 14-96s30-98 90-98c62 0 83 45 84 108H66c0 31 8 55 39 56 18 0 30-7 34-22zm-45-69c5-46-57-63-70-21-2 6-4 13-4 21h74" id="ag"/><path fill="#a9afb8" d="M220-157c-53 9-28 100-34 157h-49v-107c1-27-5-49-29-50C55-147 81-57 75 0H25l-1-190h47c2 12-1 28 3 38 10-53 101-56 108 0 13-22 24-43 59-42 82 1 51 116 57 194h-49v-107c-1-25-5-48-29-50" id="ah"/><g id="b"><use transform="matrix(0.0728395061728395,0,0,0.0728395061728395,0,0)" xlink:href="#ac"/><use transform="matrix(0.0728395061728395,0,0,0.0728395061728395,17.48148148148148,0)" xlink:href="#ad"/><use transform="matrix(0.0728395061728395,0,0,0.0728395061728395,32.04938271604938,0)" xlink:href="#ae"/><use transform="matrix(0.0728395061728395,0,0,0.0728395061728395,46.61728395061728,0)" xlink:href="#af"/><use transform="matrix(0.0728395061728395,0,0,0.0728395061728395,55.28518518518518,0)" xlink:href="#ag"/><use transform="matrix(0.0728395061728395,0,0,0.0728395061728395,69.85308641975308,0)" xlink:href="#ah"/></g><path fill="#a9afb8" d="M153-248C145-148 188 4 80 4 36 3 13-21 6-62l32-5c4 25 16 42 43 43 27 0 39-20 39-49v-147H72v-28h81" id="ai"/><path fill="#a9afb8" d="M100-194c62-1 85 37 85 99 1 63-27 99-86 99S16-35 15-95c0-66 28-99 85-99zM99-20c44 1 53-31 53-75 0-43-8-75-51-75s-53 32-53 75 10 74 51 75" id="aj"/><path fill="#a9afb8" d="M117-194c89-4 53 116 60 194h-32v-121c0-31-8-49-39-48C34-167 62-67 57 0H25l-1-190h30c1 10-1 24 2 32 11-22 29-35 61-36" id="ak"/><path fill="#a9afb8" d="M141-36C126-15 110 5 73 4 37 3 15-17 15-53c-1-64 63-63 125-63 3-35-9-54-41-54-24 1-41 7-42 31l-33-3c5-37 33-52 76-52 45 0 72 20 72 64v82c-1 20 7 32 28 27v20c-31 9-61-2-59-35zM48-53c0 20 12 33 32 33 41-3 63-29 60-74-43 2-92-5-92 41" id="al"/><path fill="#a9afb8" d="M135-143c-3-34-86-38-87 0 15 53 115 12 119 90S17 21 10-45l28-5c4 36 97 45 98 0-10-56-113-15-118-90-4-57 82-63 122-42 12 7 21 19 24 35" id="am"/><g id="c"><use transform="matrix(0.04248971193415638,0,0,0.04248971193415638,0,0)" xlink:href="#ai"/><use transform="matrix(0.04248971193415638,0,0,0.04248971193415638,7.648148148148148,0)" xlink:href="#aj"/><use transform="matrix(0.04248971193415638,0,0,0.04248971193415638,16.14609053497942,0)" xlink:href="#ak"/><use transform="matrix(0.04248971193415638,0,0,0.04248971193415638,24.644032921810698,0)" xlink:href="#al"/><use transform="matrix(0.04248971193415638,0,0,0.04248971193415638,33.141975308641975,0)" xlink:href="#am"/></g><path fill="#a9afb8" d="M240 0l2-218c-23 76-54 145-80 218h-23L58-218 59 0H30v-248h44l77 211c21-75 51-140 76-211h43V0h-30" id="an"/><path fill="#a9afb8" d="M114-163C36-179 61-72 57 0H25l-1-190h30c1 12-1 29 2 39 6-27 23-49 58-41v29" id="ao"/><path fill="#a9afb8" d="M143 0L79-87 56-68V0H24v-261h32v163l83-92h37l-77 82L181 0h-38" id="ap"/><path fill="#a9afb8" d="M24 0v-261h32V0H24" id="aq"/><path fill="#a9afb8" d="M100-194c63 0 86 42 84 106H49c0 40 14 67 53 68 26 1 43-12 49-29l28 8c-11 28-37 45-77 45C44 4 14-33 15-96c1-61 26-98 85-98zm52 81c6-60-76-77-97-28-3 7-6 17-6 28h103zm-74-98c8-23 27-35 38-54h36v5l-58 49H78" id="ar"/><g id="d"><use transform="matrix(0.04248971193415638,0,0,0.04248971193415638,0,0)" xlink:href="#an"/><use transform="matrix(0.04248971193415638,0,0,0.04248971193415638,12.704423868312757,0)" xlink:href="#al"/><use transform="matrix(0.04248971193415638,0,0,0.04248971193415638,21.20236625514403,0)" xlink:href="#ao"/><use transform="matrix(0.04248971193415638,0,0,0.04248971193415638,26.25864197530864,0)" xlink:href="#ap"/><use transform="matrix(0.04248971193415638,0,0,0.04248971193415638,33.90679012345679,0)" xlink:href="#aq"/><use transform="matrix(0.04248971193415638,0,0,0.04248971193415638,37.26347736625514,0)" xlink:href="#ar"/><use transform="matrix(0.04248971193415638,0,0,0.04248971193415638,45.761419753086415,0)" xlink:href="#ak"/></g><path fill="#a9afb8" d="M32 76v-337h29V76H32" id="as"/><use transform="matrix(0.04248971193415638,0,0,0.04248971193415638,0,0)" xlink:href="#as" id="e"/><path fill="#a9afb8" d="M185-189c-5-48-123-54-124 2 14 75 158 14 163 119 3 78-121 87-175 55-17-10-28-26-33-46l33-7c5 56 141 63 141-1 0-78-155-14-162-118-5-82 145-84 179-34 5 7 8 16 11 25" id="at"/><path fill="#a9afb8" d="M100-194c63 0 86 42 84 106H49c0 40 14 67 53 68 26 1 43-12 49-29l28 8c-11 28-37 45-77 45C44 4 14-33 15-96c1-61 26-98 85-98zm52 81c6-60-76-77-97-28-3 7-6 17-6 28h103" id="au"/><path fill="#a9afb8" d="M115-194c55 1 70 41 70 98S169 2 115 4C84 4 66-9 55-30l1 105H24l-1-265h31l2 30c10-21 28-34 59-34zm-8 174c40 0 45-34 45-75s-6-73-45-74c-42 0-51 32-51 76 0 43 10 73 51 73" id="av"/><path fill="#a9afb8" d="M59-47c-2 24 18 29 38 22v24C64 9 27 4 27-40v-127H5v-23h24l9-43h21v43h35v23H59v120" id="aw"/><path fill="#a9afb8" d="M210-169c-67 3-38 105-44 169h-31v-121c0-29-5-50-35-48C34-165 62-65 56 0H25l-1-190h30c1 10-1 24 2 32 10-44 99-50 107 0 11-21 27-35 58-36 85-2 47 119 55 194h-31v-121c0-29-5-49-35-48" id="ax"/><path fill="#a9afb8" d="M115-194c53 0 69 39 70 98 0 66-23 100-70 100C84 3 66-7 56-30L54 0H23l1-261h32v101c10-23 28-34 59-34zm-8 174c40 0 45-34 45-75 0-40-5-75-45-74-42 0-51 32-51 76 0 43 10 73 51 73" id="ay"/><g id="f"><use transform="matrix(0.04248971193415638,0,0,0.04248971193415638,0,0)" xlink:href="#at"/><use transform="matrix(0.04248971193415638,0,0,0.04248971193415638,10.19753086419753,0)" xlink:href="#au"/><use transform="matrix(0.04248971193415638,0,0,0.04248971193415638,18.695473251028805,0)" xlink:href="#av"/><use transform="matrix(0.04248971193415638,0,0,0.04248971193415638,27.193415637860078,0)" xlink:href="#aw"/><use transform="matrix(0.04248971193415638,0,0,0.04248971193415638,31.442386831275712,0)" xlink:href="#au"/><use transform="matrix(0.04248971193415638,0,0,0.04248971193415638,39.94032921810699,0)" xlink:href="#ax"/><use transform="matrix(0.04248971193415638,0,0,0.04248971193415638,52.64475308641975,0)" xlink:href="#ay"/><use transform="matrix(0.04248971193415638,0,0,0.04248971193415638,61.142695473251024,0)" xlink:href="#au"/><use transform="matrix(0.04248971193415638,0,0,0.04248971193415638,69.6406378600823,0)" xlink:href="#ao"/></g><path fill="#a9afb8" d="M27 0v-27h64v-190l-56 39v-29l58-41h29v221h61V0H27" id="az"/><path fill="#a9afb8" d="M101-251c82-7 93 87 43 132L82-64C71-53 59-42 53-27h129V0H18c2-99 128-94 128-182 0-28-16-43-45-43s-46 15-49 41l-32-3c6-41 34-60 81-64" id="aA"/><path fill="#a9afb8" d="M68-38c1 34 0 65-14 84H32c9-13 17-26 17-46H33v-38h35" id="aB"/><g id="g"><use transform="matrix(0.04248971193415638,0,0,0.04248971193415638,0,0)" xlink:href="#az"/><use transform="matrix(0.04248971193415638,0,0,0.04248971193415638,8.497942386831275,0)" xlink:href="#aA"/><use transform="matrix(0.04248971193415638,0,0,0.04248971193415638,16.99588477366255,0)" xlink:href="#aB"/></g><path fill="#a9afb8" d="M101-251c68 0 85 55 85 127S166 4 100 4C33 4 14-52 14-124c0-73 17-127 87-127zm-1 229c47 0 54-49 54-102s-4-102-53-102c-51 0-55 48-55 102 0 53 5 102 54 102" id="aC"/><path fill="#a9afb8" d="M126-127c33 6 58 20 58 59 0 88-139 92-164 29-3-8-5-16-6-25l32-3c6 27 21 44 54 44 32 0 52-15 52-46 0-38-36-46-79-43v-28c39 1 72-4 72-42 0-27-17-43-46-43-28 0-47 15-49 41l-32-3c6-42 35-63 81-64 48-1 79 21 79 65 0 36-21 52-52 59" id="aD"/><g id="h"><use transform="matrix(0.04248971193415638,0,0,0.04248971193415638,0,0)" xlink:href="#aA"/><use transform="matrix(0.04248971193415638,0,0,0.04248971193415638,8.497942386831275,0)" xlink:href="#aC"/><use transform="matrix(0.04248971193415638,0,0,0.04248971193415638,16.99588477366255,0)" xlink:href="#aA"/><use transform="matrix(0.04248971193415638,0,0,0.04248971193415638,25.493827160493822,0)" xlink:href="#aD"/></g><path fill="#333" d="M89 0H52L20-190h33L74-25l89-165h34" id="aE"/><path fill="#333" d="M111-194c62-3 86 47 72 106H45c-7 38 6 69 45 68 27-1 43-14 53-32l24 11C152-15 129 4 87 4 38 3 12-23 12-71c0-70 32-119 99-123zm44 81c14-66-71-72-95-28-4 8-8 17-11 28h106" id="aF"/><path fill="#333" d="M67-158c15-20 31-36 64-36 94 0 33 127 27 194h-32l25-140c3-38-53-32-70-12C52-117 51-51 37 0H6l51-261h31" id="aG"/><path fill="#333" d="M50-231l6-30h32l-6 30H50zM6 0l37-190h31L37 0H6" id="aH"/><path fill="#333" d="M44-68c0 29 11 47 38 47 30 0 42-19 51-41l28 9C148-21 126 4 82 4 31 4 10-29 12-85c3-77 74-140 146-93 12 8 15 23 18 40l-31 5c-1-22-13-36-36-36-52 0-65 49-65 101" id="aI"/><path fill="#333" d="M6 0l50-261h32L37 0H6" id="aJ"/><g id="i"><use transform="matrix(0.05,0,0,0.05,0,0)" xlink:href="#aE"/><use transform="matrix(0.05,0,0,0.05,9,0)" xlink:href="#aF"/><use transform="matrix(0.05,0,0,0.05,19,0)" xlink:href="#aG"/><use transform="matrix(0.05,0,0,0.05,29,0)" xlink:href="#aH"/><use transform="matrix(0.05,0,0,0.05,32.95,0)" xlink:href="#aI"/><use transform="matrix(0.05,0,0,0.05,41.95,0)" xlink:href="#aJ"/><use transform="matrix(0.05,0,0,0.05,45.900000000000006,0)" xlink:href="#aF"/></g><path fill="#333" d="M133-28C103 26-5 8 13-77c13-62 24-115 90-117 29-1 46 15 56 35l19-102h32L160 0h-30zM45-64c-2 27 10 43 35 43 54-1 69-50 69-103 0-29-15-46-42-46-53-1-58 58-62 106" id="aK"/><g id="j"><use transform="matrix(0.05,0,0,0.05,0,0)" xlink:href="#aH"/><use transform="matrix(0.05,0,0,0.05,3.95,0)" xlink:href="#aK"/></g><path fill="#333" d="M238-179c0 84-86 86-175 82L45 0H11l48-248c82 0 179-12 179 69zm-34 1c0-53-64-42-116-43l-19 98c63 0 135 9 135-55" id="aL"/><path fill="#333" d="M180 0L97-118 63-96 45 0H11l48-248h34L69-126c44-43 94-81 141-122h43L121-137 219 0h-39" id="aM"/><g id="k"><use transform="matrix(0.05,0,0,0.05,0,0)" xlink:href="#aL"/><use transform="matrix(0.05,0,0,0.05,12,0)" xlink:href="#aM"/></g><path fill="#333" d="M67-158c22-48 132-52 116 29L158 0h-32l25-140c3-38-53-32-70-12C52-117 51-52 38 0H6l36-190h30" id="aN"/><path fill="#333" d="M55-144c13 50 104 24 104 88C159 21 15 23 1-39l26-10c6 40 102 42 102-4-13-50-104-23-104-87 0-71 143-71 148-8l-29 4c-5-35-85-37-89 0" id="aO"/><path fill="#333" d="M-28 44V31h207v13H-28" id="aP"/><path fill="#333" d="M67-162c32-53 139-36 121 50C175-51 163 2 97 4 68 4 52-11 42-31 38 6 28 39 22 75H-9l50-265h29c-1 10 0 20-3 28zm89 36c0-26-10-43-35-43-54 0-67 50-69 103-1 29 14 45 42 46 53 0 62-58 62-106" id="aQ"/><path fill="#333" d="M165-48c-4 18 1 34 23 27l-3 20c-29 8-62 0-52-35h-2C116-14 99 4 63 4 30 4 8-16 8-49c0-68 71-67 138-67 10-26 0-56-31-54-26 1-42 9-47 31l-32-5c8-67 160-71 144 15-5 28-9 54-15 81zM42-50c3 52 80 24 89-6 7-12 7-24 11-38-47 1-103-4-100 44" id="aR"/><path fill="#333" d="M51-54c-9 22 5 41 31 30L79-1C43 14 10-4 19-52l22-115H19l5-23h22l19-43h21l-9 43h35l-4 23H73" id="aS"/><g id="l"><use transform="matrix(0.05,0,0,0.05,0,0)" xlink:href="#aJ"/><use transform="matrix(0.05,0,0,0.05,3.95,0)" xlink:href="#aH"/><use transform="matrix(0.05,0,0,0.05,7.9,0)" xlink:href="#aI"/><use transform="matrix(0.05,0,0,0.05,16.9,0)" xlink:href="#aF"/><use transform="matrix(0.05,0,0,0.05,26.899999999999995,0)" xlink:href="#aN"/><use transform="matrix(0.05,0,0,0.05,36.9,0)" xlink:href="#aO"/><use transform="matrix(0.05,0,0,0.05,45.9,0)" xlink:href="#aF"/><use transform="matrix(0.05,0,0,0.05,55.900000000000006,0)" xlink:href="#aP"/><use transform="matrix(0.05,0,0,0.05,65.9,0)" xlink:href="#aQ"/><use transform="matrix(0.05,0,0,0.05,75.9,0)" xlink:href="#aJ"/><use transform="matrix(0.05,0,0,0.05,79.85000000000001,0)" xlink:href="#aR"/><use transform="matrix(0.05,0,0,0.05,89.85000000000001,0)" xlink:href="#aS"/><use transform="matrix(0.05,0,0,0.05,94.85000000000001,0)" xlink:href="#aF"/></g><path fill="#333" d="M66-151c12-25 30-51 66-40l-6 26C45-176 58-65 38 0H6l36-190h30" id="aT"/><g id="m"><use transform="matrix(0.05,0,0,0.05,0,0)" xlink:href="#aE"/><use transform="matrix(0.05,0,0,0.05,9,0)" xlink:href="#aR"/><use transform="matrix(0.05,0,0,0.05,19,0)" xlink:href="#aT"/><use transform="matrix(0.05,0,0,0.05,24.95,0)" xlink:href="#aI"/><use transform="matrix(0.05,0,0,0.05,33.95,0)" xlink:href="#aG"/><use transform="matrix(0.05,0,0,0.05,43.95,0)" xlink:href="#aR"/><use transform="matrix(0.05,0,0,0.05,53.95,0)" xlink:href="#aT"/></g><path fill="#333" d="M30-147c31-64 166-65 159 27C183-49 158 1 86 4 9 8 1-88 30-147zM88-20c53 0 68-48 68-100 0-31-11-51-44-50-52 1-68 46-68 97 0 32 13 53 44 53" id="aU"/><path fill="#333" d="M127 0L80-88 50-66 37 0H6l51-261h31L57-100l99-90h39l-93 82L161 0h-34" id="aV"/><g id="n"><use transform="matrix(0.05,0,0,0.05,0,0)" xlink:href="#aS"/><use transform="matrix(0.05,0,0,0.05,5,0)" xlink:href="#aU"/><use transform="matrix(0.05,0,0,0.05,15,0)" xlink:href="#aV"/><use transform="matrix(0.05,0,0,0.05,24,0)" xlink:href="#aF"/><use transform="matrix(0.05,0,0,0.05,34,0)" xlink:href="#aN"/></g><g id="o"><use transform="matrix(0.05,0,0,0.05,0,0)" xlink:href="#aU"/><use transform="matrix(0.05,0,0,0.05,10,0)" xlink:href="#aQ"/><use transform="matrix(0.05,0,0,0.05,20,0)" xlink:href="#aF"/><use transform="matrix(0.05,0,0,0.05,30,0)" xlink:href="#aT"/><use transform="matrix(0.05,0,0,0.05,35.95,0)" xlink:href="#aR"/><use transform="matrix(0.05,0,0,0.05,45.95,0)" xlink:href="#aS"/><use transform="matrix(0.05,0,0,0.05,50.95,0)" xlink:href="#aU"/><use transform="matrix(0.05,0,0,0.05,60.95,0)" xlink:href="#aT"/><use transform="matrix(0.05,0,0,0.05,66.9,0)" xlink:href="#aP"/><use transform="matrix(0.05,0,0,0.05,76.9,0)" xlink:href="#aH"/><use transform="matrix(0.05,0,0,0.05,80.85000000000001,0)" xlink:href="#aK"/></g><path fill="#333" d="M103-194c29 0 47 14 56 36 2-11 5-23 8-32h30L160-5C157 61 82 97 21 62 9 55 4 45 1 30l28-7c7 42 83 31 92-3 4-16 9-38 13-55-13 20-29 36-62 36-40 0-60-25-60-64 0-71 23-131 91-131zm4 24c-53 0-58 54-61 104-2 27 10 44 36 44 49 0 65-50 67-102 1-29-15-46-42-46" id="aW"/><g id="p"><use transform="matrix(0.05,0,0,0.05,0,0)" xlink:href="#aH"/><use transform="matrix(0.05,0,0,0.05,3.95,0)" xlink:href="#aN"/><use transform="matrix(0.05,0,0,0.05,13.949999999999998,0)" xlink:href="#aS"/><use transform="matrix(0.05,0,0,0.05,18.95,0)" xlink:href="#aF"/><use transform="matrix(0.05,0,0,0.05,28.950000000000003,0)" xlink:href="#aW"/><use transform="matrix(0.05,0,0,0.05,38.95,0)" xlink:href="#aF"/><use transform="matrix(0.05,0,0,0.05,48.95,0)" xlink:href="#aT"/></g><path fill="#333" d="M-8 0l5-24 140-142H31l5-24h145l-5 24L36-24h119l-5 24H-8" id="aX"/><g id="q"><use transform="matrix(0.05,0,0,0.05,0,0)" xlink:href="#aX"/><use transform="matrix(0.05,0,0,0.05,9,0)" xlink:href="#aU"/><use transform="matrix(0.05,0,0,0.05,19,0)" xlink:href="#aN"/><use transform="matrix(0.05,0,0,0.05,29,0)" xlink:href="#aF"/><use transform="matrix(0.05,0,0,0.05,39,0)" xlink:href="#aP"/><use transform="matrix(0.05,0,0,0.05,49,0)" xlink:href="#aH"/><use transform="matrix(0.05,0,0,0.05,52.95,0)" xlink:href="#aK"/></g><path fill="#333" d="M198-190L69 30C53 58 25 83-20 72c4-11-1-27 19-22 33-1 43-29 59-52L20-190h32L79-34l84-156h35" id="aY"/><path fill="#333" d="M124 0L87-78 21 0h-35l86-98-46-92h33l34 74 61-74h37l-83 92 50 98h-34" id="aZ"/><g id="r"><use transform="matrix(0.05,0,0,0.05,0,0)" xlink:href="#aS"/><use transform="matrix(0.05,0,0,0.05,5,0)" xlink:href="#aH"/><use transform="matrix(0.05,0,0,0.05,8.95,0)" xlink:href="#aN"/><use transform="matrix(0.05,0,0,0.05,18.95,0)" xlink:href="#aY"/><use transform="matrix(0.05,0,0,0.05,27.950000000000003,0)" xlink:href="#aS"/><use transform="matrix(0.05,0,0,0.05,32.95,0)" xlink:href="#aF"/><use transform="matrix(0.05,0,0,0.05,42.95,0)" xlink:href="#aZ"/><use transform="matrix(0.05,0,0,0.05,51.95,0)" xlink:href="#aS"/></g><g id="s"><use transform="matrix(0.05,0,0,0.05,0,0)" xlink:href="#aF"/><use transform="matrix(0.05,0,0,0.05,10,0)" xlink:href="#aZ"/><use transform="matrix(0.05,0,0,0.05,19,0)" xlink:href="#aQ"/><use transform="matrix(0.05,0,0,0.05,29,0)" xlink:href="#aH"/><use transform="matrix(0.05,0,0,0.05,32.95,0)" xlink:href="#aT"/><use transform="matrix(0.05,0,0,0.05,38.900000000000006,0)" xlink:href="#aF"/><use transform="matrix(0.05,0,0,0.05,48.900000000000006,0)" xlink:href="#aO"/><use transform="matrix(0.05,0,0,0.05,57.900000000000006,0)" xlink:href="#aP"/><use transform="matrix(0.05,0,0,0.05,67.9,0)" xlink:href="#aR"/><use transform="matrix(0.05,0,0,0.05,77.9,0)" xlink:href="#aS"/></g><path fill="#333" d="M248-111c6-24 9-61-24-58-72 9-57 108-77 169h-31l26-142c3-37-50-30-64-10C52-115 50-51 37 0H6l36-190h30c-1 10-6 24-4 32 13-43 101-52 105 5 13-22 29-41 61-41 90 0 28 129 23 194h-31" id="ba"/><g id="t"><use transform="matrix(0.05,0,0,0.05,0,0)" xlink:href="#aK"/><use transform="matrix(0.05,0,0,0.05,10,0)" xlink:href="#aR"/><use transform="matrix(0.05,0,0,0.05,20,0)" xlink:href="#aS"/><use transform="matrix(0.05,0,0,0.05,25,0)" xlink:href="#aF"/><use transform="matrix(0.05,0,0,0.05,35,0)" xlink:href="#aS"/><use transform="matrix(0.05,0,0,0.05,40,0)" xlink:href="#aH"/><use transform="matrix(0.05,0,0,0.05,43.95,0)" xlink:href="#ba"/><use transform="matrix(0.05,0,0,0.05,58.900000000000006,0)" xlink:href="#aF"/></g><g id="u"><use transform="matrix(0.05,0,0,0.05,0,0)" xlink:href="#aS"/><use transform="matrix(0.05,0,0,0.05,5,0)" xlink:href="#aH"/><use transform="matrix(0.05,0,0,0.05,8.95,0)" xlink:href="#aI"/><use transform="matrix(0.05,0,0,0.05,17.95,0)" xlink:href="#aV"/><use transform="matrix(0.05,0,0,0.05,26.950000000000003,0)" xlink:href="#aF"/><use transform="matrix(0.05,0,0,0.05,36.95,0)" xlink:href="#aS"/></g><g id="v"><use transform="matrix(0.05,0,0,0.05,0,0)" xlink:href="#aE"/><use transform="matrix(0.05,0,0,0.05,9,0)" xlink:href="#aF"/><use transform="matrix(0.05,0,0,0.05,19,0)" xlink:href="#aG"/><use transform="matrix(0.05,0,0,0.05,29,0)" xlink:href="#aH"/><use transform="matrix(0.05,0,0,0.05,32.95,0)" xlink:href="#aI"/><use transform="matrix(0.05,0,0,0.05,41.95,0)" xlink:href="#aJ"/><use transform="matrix(0.05,0,0,0.05,45.900000000000006,0)" xlink:href="#aF"/><use transform="matrix(0.05,0,0,0.05,55.900000000000006,0)" xlink:href="#aP"/><use transform="matrix(0.05,0,0,0.05,65.9,0)" xlink:href="#aH"/><use transform="matrix(0.05,0,0,0.05,69.85000000000001,0)" xlink:href="#aK"/></g><path fill="#333" d="M67 3c-93-2-31-127-26-193h32L48-50c-3 39 53 32 70 12 30-34 30-101 43-152h32L157 0h-30c1-10 6-24 4-33-14 20-29 37-64 36" id="bb"/><g id="w"><use transform="matrix(0.05,0,0,0.05,0,0)" xlink:href="#aR"/><use transform="matrix(0.05,0,0,0.05,10,0)" xlink:href="#ba"/><use transform="matrix(0.05,0,0,0.05,24.950000000000003,0)" xlink:href="#aU"/><use transform="matrix(0.05,0,0,0.05,34.95,0)" xlink:href="#bb"/><use transform="matrix(0.05,0,0,0.05,44.95,0)" xlink:href="#aN"/><use transform="matrix(0.05,0,0,0.05,54.95,0)" xlink:href="#aS"/></g><g id="x"><use transform="matrix(0.05,0,0,0.05,0,0)" xlink:href="#aH"/><use transform="matrix(0.05,0,0,0.05,3.95,0)" xlink:href="#aO"/><use transform="matrix(0.05,0,0,0.05,12.949999999999998,0)" xlink:href="#aO"/><use transform="matrix(0.05,0,0,0.05,21.95,0)" xlink:href="#bb"/><use transform="matrix(0.05,0,0,0.05,31.950000000000003,0)" xlink:href="#aF"/><use transform="matrix(0.05,0,0,0.05,41.95,0)" xlink:href="#aK"/><use transform="matrix(0.05,0,0,0.05,51.95,0)" xlink:href="#aP"/><use transform="matrix(0.05,0,0,0.05,61.95,0)" xlink:href="#aR"/><use transform="matrix(0.05,0,0,0.05,71.95,0)" xlink:href="#aS"/></g><g id="y"><use transform="matrix(0.05,0,0,0.05,0,0)" xlink:href="#aK"/><use transform="matrix(0.05,0,0,0.05,10,0)" xlink:href="#bb"/><use transform="matrix(0.05,0,0,0.05,20,0)" xlink:href="#aF"/><use transform="matrix(0.05,0,0,0.05,30,0)" xlink:href="#aP"/><use transform="matrix(0.05,0,0,0.05,40,0)" xlink:href="#aR"/><use transform="matrix(0.05,0,0,0.05,50,0)" xlink:href="#aS"/></g><g id="z"><use transform="matrix(0.05,0,0,0.05,0,0)" xlink:href="#aK"/><use transform="matrix(0.05,0,0,0.05,10,0)" xlink:href="#aR"/><use transform="matrix(0.05,0,0,0.05,20,0)" xlink:href="#aS"/><use transform="matrix(0.05,0,0,0.05,25,0)" xlink:href="#aF"/></g><g id="A"><use transform="matrix(0.05,0,0,0.05,0,0)" xlink:href="#aQ"/><use transform="matrix(0.05,0,0,0.05,10,0)" xlink:href="#aR"/><use transform="matrix(0.05,0,0,0.05,20,0)" xlink:href="#aH"/><use transform="matrix(0.05,0,0,0.05,23.95,0)" xlink:href="#aK"/><use transform="matrix(0.05,0,0,0.05,33.95,0)" xlink:href="#aP"/><use transform="matrix(0.05,0,0,0.05,43.95,0)" xlink:href="#aR"/><use transform="matrix(0.05,0,0,0.05,53.95,0)" xlink:href="#aS"/></g><path fill="#333" d="M76-167L44 0H12l33-167H18l4-23h27c3-47 25-81 82-69l-4 24c-35-8-44 15-46 45h37l-5 23H76" id="bc"/><g id="B"><use transform="matrix(0.05,0,0,0.05,0,0)" xlink:href="#aH"/><use transform="matrix(0.05,0,0,0.05,3.95,0)" xlink:href="#aN"/><use transform="matrix(0.05,0,0,0.05,13.949999999999998,0)" xlink:href="#bc"/><use transform="matrix(0.05,0,0,0.05,18.95,0)" xlink:href="#aT"/><use transform="matrix(0.05,0,0,0.05,24.9,0)" xlink:href="#aR"/><use transform="matrix(0.05,0,0,0.05,34.9,0)" xlink:href="#aI"/><use transform="matrix(0.05,0,0,0.05,43.9,0)" xlink:href="#aS"/><use transform="matrix(0.05,0,0,0.05,48.9,0)" xlink:href="#aH"/><use transform="matrix(0.05,0,0,0.05,52.85,0)" xlink:href="#aU"/><use transform="matrix(0.05,0,0,0.05,62.85,0)" xlink:href="#aN"/></g><g id="C"><use transform="matrix(0.05,0,0,0.05,0,0)" xlink:href="#aO"/><use transform="matrix(0.05,0,0,0.05,9,0)" xlink:href="#aS"/><use transform="matrix(0.05,0,0,0.05,14,0)" xlink:href="#aR"/><use transform="matrix(0.05,0,0,0.05,24,0)" xlink:href="#aS"/><use transform="matrix(0.05,0,0,0.05,29,0)" xlink:href="#bb"/><use transform="matrix(0.05,0,0,0.05,39,0)" xlink:href="#aO"/></g><g id="D"><use transform="matrix(0.05,0,0,0.05,0,0)" xlink:href="#aI"/><use transform="matrix(0.05,0,0,0.05,9,0)" xlink:href="#aG"/><use transform="matrix(0.05,0,0,0.05,19,0)" xlink:href="#aF"/><use transform="matrix(0.05,0,0,0.05,29,0)" xlink:href="#aI"/><use transform="matrix(0.05,0,0,0.05,38,0)" xlink:href="#aV"/></g><g id="E"><use transform="matrix(0.05,0,0,0.05,0,0)" xlink:href="#aI"/><use transform="matrix(0.05,0,0,0.05,9,0)" xlink:href="#aG"/><use transform="matrix(0.05,0,0,0.05,19,0)" xlink:href="#aF"/><use transform="matrix(0.05,0,0,0.05,29,0)" xlink:href="#aI"/><use transform="matrix(0.05,0,0,0.05,38,0)" xlink:href="#aV"/><use transform="matrix(0.05,0,0,0.05,47,0)" xlink:href="#aF"/><use transform="matrix(0.05,0,0,0.05,57,0)" xlink:href="#aK"/><use transform="matrix(0.05,0,0,0.05,67,0)" xlink:href="#aP"/><use transform="matrix(0.05,0,0,0.05,77,0)" xlink:href="#aR"/><use transform="matrix(0.05,0,0,0.05,87,0)" xlink:href="#aS"/></g><g id="F"><use transform="matrix(0.05,0,0,0.05,0,0)" xlink:href="#ba"/><use transform="matrix(0.05,0,0,0.05,14.950000000000001,0)" xlink:href="#aH"/><use transform="matrix(0.05,0,0,0.05,18.900000000000002,0)" xlink:href="#aW"/><use transform="matrix(0.05,0,0,0.05,28.900000000000002,0)" xlink:href="#aT"/><use transform="matrix(0.05,0,0,0.05,34.85,0)" xlink:href="#aR"/><use transform="matrix(0.05,0,0,0.05,44.85,0)" xlink:href="#aS"/><use transform="matrix(0.05,0,0,0.05,49.85,0)" xlink:href="#aH"/><use transform="matrix(0.05,0,0,0.05,53.800000000000004,0)" xlink:href="#aU"/><use transform="matrix(0.05,0,0,0.05,63.800000000000004,0)" xlink:href="#aN"/><use transform="matrix(0.05,0,0,0.05,73.80000000000001,0)" xlink:href="#aO"/></g><g id="G"><use transform="matrix(0.05,0,0,0.05,0,0)" xlink:href="#aE"/><use transform="matrix(0.05,0,0,0.05,9,0)" xlink:href="#aF"/><use transform="matrix(0.05,0,0,0.05,19,0)" xlink:href="#aT"/><use transform="matrix(0.05,0,0,0.05,24.95,0)" xlink:href="#aO"/><use transform="matrix(0.05,0,0,0.05,33.95,0)" xlink:href="#aH"/><use transform="matrix(0.05,0,0,0.05,37.900000000000006,0)" xlink:href="#aU"/><use transform="matrix(0.05,0,0,0.05,47.900000000000006,0)" xlink:href="#aN"/></g><g id="H"><use transform="matrix(0.05,0,0,0.05,0,0)" xlink:href="#aF"/><use transform="matrix(0.05,0,0,0.05,10,0)" xlink:href="#aZ"/><use transform="matrix(0.05,0,0,0.05,19,0)" xlink:href="#aF"/><use transform="matrix(0.05,0,0,0.05,29,0)" xlink:href="#aI"/><use transform="matrix(0.05,0,0,0.05,38,0)" xlink:href="#bb"/><use transform="matrix(0.05,0,0,0.05,48,0)" xlink:href="#aS"/><use transform="matrix(0.05,0,0,0.05,53,0)" xlink:href="#aF"/><use transform="matrix(0.05,0,0,0.05,63,0)" xlink:href="#aK"/><use transform="matrix(0.05,0,0,0.05,73,0)" xlink:href="#aP"/><use transform="matrix(0.05,0,0,0.05,83,0)" xlink:href="#aR"/><use transform="matrix(0.05,0,0,0.05,93,0)" xlink:href="#aS"/></g><g id="I"><use transform="matrix(0.05,0,0,0.05,0,0)" xlink:href="#aF"/><use transform="matrix(0.05,0,0,0.05,10,0)" xlink:href="#aZ"/><use transform="matrix(0.05,0,0,0.05,19,0)" xlink:href="#aF"/><use transform="matrix(0.05,0,0,0.05,29,0)" xlink:href="#aI"/><use transform="matrix(0.05,0,0,0.05,38,0)" xlink:href="#bb"/><use transform="matrix(0.05,0,0,0.05,48,0)" xlink:href="#aS"/><use transform="matrix(0.05,0,0,0.05,53,0)" xlink:href="#aH"/><use transform="matrix(0.05,0,0,0.05,56.95,0)" xlink:href="#aU"/><use transform="matrix(0.05,0,0,0.05,66.95,0)" xlink:href="#aN"/><use transform="matrix(0.05,0,0,0.05,76.95,0)" xlink:href="#aP"/><use transform="matrix(0.05,0,0,0.05,86.95,0)" xlink:href="#aS"/><use transform="matrix(0.05,0,0,0.05,91.95,0)" xlink:href="#aH"/><use transform="matrix(0.05,0,0,0.05,95.9,0)" xlink:href="#ba"/><use transform="matrix(0.05,0,0,0.05,110.85000000000001,0)" xlink:href="#aF"/></g><g id="J"><use transform="matrix(0.05,0,0,0.05,0,0)" xlink:href="#aH"/><use transform="matrix(0.05,0,0,0.05,3.95,0)" xlink:href="#aN"/><use transform="matrix(0.05,0,0,0.05,13.949999999999998,0)" xlink:href="#aS"/></g><g id="K"><use transform="matrix(0.05,0,0,0.05,0,0)" xlink:href="#aQ"/><use transform="matrix(0.05,0,0,0.05,10,0)" xlink:href="#aR"/><use transform="matrix(0.05,0,0,0.05,20,0)" xlink:href="#aT"/><use transform="matrix(0.05,0,0,0.05,25.950000000000003,0)" xlink:href="#aV"/><use transform="matrix(0.05,0,0,0.05,34.95,0)" xlink:href="#aH"/><use transform="matrix(0.05,0,0,0.05,38.900000000000006,0)" xlink:href="#aN"/><use transform="matrix(0.05,0,0,0.05,48.900000000000006,0)" xlink:href="#aW"/></g><g id="L"><use transform="matrix(0.05,0,0,0.05,0,0)" xlink:href="#aO"/><use transform="matrix(0.05,0,0,0.05,9,0)" xlink:href="#aS"/><use transform="matrix(0.05,0,0,0.05,14,0)" xlink:href="#aR"/><use transform="matrix(0.05,0,0,0.05,24,0)" xlink:href="#aT"/><use transform="matrix(0.05,0,0,0.05,29.950000000000003,0)" xlink:href="#aS"/><use transform="matrix(0.05,0,0,0.05,34.95,0)" xlink:href="#aF"/><use transform="matrix(0.05,0,0,0.05,44.95,0)" xlink:href="#aK"/><use transform="matrix(0.05,0,0,0.05,54.95,0)" xlink:href="#aP"/><use transform="matrix(0.05,0,0,0.05,64.95,0)" xlink:href="#aR"/><use transform="matrix(0.05,0,0,0.05,74.95,0)" xlink:href="#aS"/></g><g id="M"><use transform="matrix(0.05,0,0,0.05,0,0)" xlink:href="#aI"/><use transform="matrix(0.05,0,0,0.05,9,0)" xlink:href="#aU"/><use transform="matrix(0.05,0,0,0.05,19,0)" xlink:href="#aO"/><use transform="matrix(0.05,0,0,0.05,28,0)" xlink:href="#aS"/></g><g id="N"><use transform="matrix(0.05,0,0,0.05,0,0)" xlink:href="#aX"/><use transform="matrix(0.05,0,0,0.05,9,0)" xlink:href="#aU"/><use transform="matrix(0.05,0,0,0.05,19,0)" xlink:href="#aN"/><use transform="matrix(0.05,0,0,0.05,29,0)" xlink:href="#aF"/></g><g id="O"><use transform="matrix(0.05,0,0,0.05,0,0)" xlink:href="#aN"/><use transform="matrix(0.05,0,0,0.05,10,0)" xlink:href="#aR"/><use transform="matrix(0.05,0,0,0.05,20,0)" xlink:href="#ba"/><use transform="matrix(0.05,0,0,0.05,34.95,0)" xlink:href="#aF"/></g><g id="P"><use transform="matrix(0.05,0,0,0.05,0,0)" xlink:href="#aT"/><use transform="matrix(0.05,0,0,0.05,5.95,0)" xlink:href="#aR"/><use transform="matrix(0.05,0,0,0.05,15.949999999999998,0)" xlink:href="#aS"/><use transform="matrix(0.05,0,0,0.05,20.95,0)" xlink:href="#aF"/></g><g id="Q"><use transform="matrix(0.05,0,0,0.05,0,0)" xlink:href="#aS"/><use transform="matrix(0.05,0,0,0.05,5,0)" xlink:href="#aY"/><use transform="matrix(0.05,0,0,0.05,14,0)" xlink:href="#aQ"/><use transform="matrix(0.05,0,0,0.05,24,0)" xlink:href="#aF"/></g><g id="R"><use transform="matrix(0.05,0,0,0.05,0,0)" xlink:href="#aU"/><use transform="matrix(0.05,0,0,0.05,10,0)" xlink:href="#aQ"/><use transform="matrix(0.05,0,0,0.05,20,0)" xlink:href="#aF"/><use transform="matrix(0.05,0,0,0.05,30,0)" xlink:href="#aT"/><use transform="matrix(0.05,0,0,0.05,35.95,0)" xlink:href="#aR"/><use transform="matrix(0.05,0,0,0.05,45.95,0)" xlink:href="#aS"/><use transform="matrix(0.05,0,0,0.05,50.95,0)" xlink:href="#aU"/><use transform="matrix(0.05,0,0,0.05,60.95,0)" xlink:href="#aT"/></g><g id="S"><use transform="matrix(0.05,0,0,0.05,0,0)" xlink:href="#bb"/><use transform="matrix(0.05,0,0,0.05,10,0)" xlink:href="#aO"/><use transform="matrix(0.05,0,0,0.05,19,0)" xlink:href="#aF"/><use transform="matrix(0.05,0,0,0.05,29,0)" xlink:href="#aT"/><use transform="matrix(0.05,0,0,0.05,34.95,0)" xlink:href="#aN"/><use transform="matrix(0.05,0,0,0.05,44.95,0)" xlink:href="#aR"/><use transform="matrix(0.05,0,0,0.05,54.95,0)" xlink:href="#ba"/><use transform="matrix(0.05,0,0,0.05,69.9,0)" xlink:href="#aF"/></g><g id="T"><use transform="matrix(0.05,0,0,0.05,0,0)" xlink:href="#aJ"/><use transform="matrix(0.05,0,0,0.05,3.95,0)" xlink:href="#aU"/><use transform="matrix(0.05,0,0,0.05,13.949999999999998,0)" xlink:href="#aN"/><use transform="matrix(0.05,0,0,0.05,23.95,0)" xlink:href="#aW"/><use transform="matrix(0.05,0,0,0.05,33.95,0)" xlink:href="#aS"/><use transform="matrix(0.05,0,0,0.05,38.95,0)" xlink:href="#aF"/><use transform="matrix(0.05,0,0,0.05,48.95,0)" xlink:href="#aZ"/><use transform="matrix(0.05,0,0,0.05,57.95,0)" xlink:href="#aS"/></g><path fill="#333" d="M188 0h-37l-8-164L71 0H34L18-190h31l8 164 75-164h34l8 164 74-164h31" id="bd"/><g id="U"><use transform="matrix(0.05,0,0,0.05,0,0)" xlink:href="#aQ"/><use transform="matrix(0.05,0,0,0.05,10,0)" xlink:href="#aR"/><use transform="matrix(0.05,0,0,0.05,20,0)" xlink:href="#aO"/><use transform="matrix(0.05,0,0,0.05,29,0)" xlink:href="#aO"/><use transform="matrix(0.05,0,0,0.05,38,0)" xlink:href="#bd"/><use transform="matrix(0.05,0,0,0.05,50.95,0)" xlink:href="#aU"/><use transform="matrix(0.05,0,0,0.05,60.95,0)" xlink:href="#aT"/><use transform="matrix(0.05,0,0,0.05,66.9,0)" xlink:href="#aK"/></g></defs></g></svg>